<svg width="70" height="70" viewBox="0 0 70 70" fill="none" xmlns="http://www.w3.org/2000/svg">
<path d="M56.9815 25.3518C55.7672 22.5899 54.0475 20.1003 51.9395 18M48.9992 39L21.4753 39C15.6143 39 10.2896 34.5907 11.8416 28.9389C12.9658 24.8452 15.1649 21.1135 18.1277 18.1267C22.448 13.7713 28.3922 11 34.9947 11C41.6086 11 47.5978 13.6742 51.9395 18M51.9395 18C56.301 22.3454 59 28.3576 59 35C59 37.3662 58.6575 39.6523 58.0194 41.8117C56.1424 48.1632 48.1488 48.2024 43.4698 43.5149L22.0202 22.0263" stroke="#EDD34E" stroke-linecap="round"/>
<path d="M22 31L48.5196 31C54.3807 31 59.7121 35.4089 58.175 41.0648C55.424 51.1875 46.1077 59 35.0029 59C28.3897 59 22.4011 56.3258 18.0598 52C13.6988 47.6545 11 41.6424 11 35C11 21.7452 21.7465 11 35.0029 11C37.3359 11 39.5911 11.3328 41.7238 11.9535C48.0876 13.8058 48.1528 21.8059 43.474 26.5004L22 48.0466" stroke="#D200C1" stroke-linecap="round"/>
<path d="M1 35C1.00001 16.2223 16.2223 0.999997 35 0.999999C53.7777 1 69 16.2223 69 35C69 53.7777 53.7777 69 35 69C16.2223 69 1 53.7777 1 35Z" stroke="#FF0000"/>
</svg>
