<svg width="187" height="64" viewBox="0 0 187 64" fill="none" xmlns="http://www.w3.org/2000/svg">
<path d="M14.2776 50.2276C13.8776 50.6284 13.3442 50.8289 12.8775 50.8289C11.9441 50.8289 10.944 50.2276 10.4773 49.2255C9.34385 46.7537 9.01048 31.5324 8.94381 28.8601C8.81047 24.6514 8.4771 20.309 9.61054 16.2338C9.9439 14.9645 10.744 13.3612 12.2774 13.3612C13.3442 13.3612 14.411 14.1628 14.611 15.2985C14.7443 15.9666 14.411 16.6347 14.1443 17.2359C13.8109 18.1044 13.6776 19.0397 13.6109 19.9749C13.4776 21.3779 13.5442 28.6597 13.6109 30.0626C15.211 29.261 16.8779 28.5261 18.478 27.6576C22.6784 25.5866 32.3459 19.7077 33.6794 14.6973C33.9461 13.6284 33.8127 12.3591 33.4127 11.357C31.3458 6.68058 24.4119 4.67641 19.8115 4.67641C15.4111 4.67641 8.27708 5.87891 4.87678 9.08559C4.74343 9.21921 4.74343 9.41962 4.67676 9.55323C4.21005 10.5553 3.34331 11.023 2.47656 11.023C1.14311 11.023 -0.123672 9.95407 0.00967378 8.21712C0.143019 6.54697 3.14329 4.34238 4.61009 3.54071C9.01048 1.1357 14.5443 0 19.5448 0C25.9453 0 34.0127 2.60542 37.2797 8.61795C38.3465 10.6221 38.7465 13.0271 38.3465 15.1649C36.8797 22.8476 24.8119 29.8622 18.5447 32.8685C20.6782 33.4029 36.2129 37.6785 38.3465 38.2798C39.0799 38.4802 39.6799 39.2818 39.8799 40.0167C40.28 41.5532 38.6798 43.1566 37.1463 42.7557C34.4128 42.0877 16.5445 37.2777 13.8776 36.476C13.9443 37.5449 14.4776 46.6201 14.9444 47.6222C15.2777 48.4239 14.9444 49.5596 14.2776 50.2276Z" fill="#D9D9D9"/>
<path d="M76.8487 42.7557C77.2487 44.1587 76.1153 45.428 74.6485 45.4948C72.515 45.6952 71.8482 42.7557 71.5149 40.618C70.9815 37.4781 70.7815 34.2714 70.6481 31.0647C70.3148 24.6514 70.6481 18.1712 71.2482 11.8246C71.5815 8.68476 72.0483 4.40918 74.6485 4.40918C74.9152 4.40918 75.1819 4.47599 75.4486 4.5428C76.7154 4.87683 77.2487 6.21294 76.9154 7.48225C76.8487 7.88309 76.582 8.15031 76.4486 8.55115C76.2486 9.62004 76.0486 10.6889 75.9819 11.8246C75.0485 19.6409 74.9152 27.5908 75.5819 35.4071C75.7819 37.9457 76.182 40.2839 76.8487 42.7557Z" fill="#D9D9D9"/>
<path d="M101.79 62.9979C101.323 63.666 100.657 64 99.9898 64C98.7897 64 97.5896 63.0647 97.4563 61.6618C97.1896 58.4551 100.323 45.9624 101.19 42.8893C99.3231 44.2255 97.1229 45.2944 94.7894 45.2944C92.1225 45.2944 90.2556 44.1587 88.7222 42.0209C87.322 40.0167 85.8552 35.1399 85.6552 32.7349C85.5219 30.7975 86.8553 28.8601 88.5888 28.8601C88.8555 28.8601 89.0555 28.9269 89.3222 28.9937C90.9223 29.3946 91.3891 31.3987 90.3223 32.6681C90.6557 34.4718 91.8558 39.215 93.3226 40.2839C93.7226 40.5511 94.1893 40.6848 94.656 40.6848C96.5228 40.6848 98.8564 38.881 100.257 37.6785C101.19 36.8768 104.39 33.4029 104.924 32.2672C105.457 31.0647 105.99 29.9958 107.457 29.9958C108.857 29.9958 110.191 31.2651 109.724 33.0689C109.591 33.5365 109.257 34.0042 109.057 34.4718C105.924 42.0877 102.99 52.3758 102.123 60.6597C102.123 60.8601 102.123 60.9937 102.19 61.1274C102.39 61.7954 102.123 62.4635 101.79 62.9979Z" fill="#D9D9D9"/>
<path d="M148.634 38.8142C147.301 42.4885 143.701 46.1628 139.567 46.1628C137.633 46.1628 135.7 45.428 134.5 43.7578C131.833 40.2171 131.966 32.8685 134.567 29.261C135.367 27.9916 136.633 26.9228 138.1 26.5887C138.834 26.3883 141.567 25.9875 142.301 26.2547C142.367 26.2547 142.767 26.3883 142.834 26.4551C146.234 26.8559 148.701 30.8643 149.168 33.9374C149.435 35.5407 149.168 37.2777 148.634 38.8142ZM138.1 40.8184C138.434 41.286 139.234 41.5532 139.9 41.4196C142.301 41.1524 144.434 38.0793 144.634 35.6743C144.767 34.1378 143.701 31.7996 142.367 31.1315C141.634 30.7975 140.7 31.2651 139.9 30.9979C139.434 30.7975 138.767 31.2651 138.5 31.666C137.1 33.8706 136.633 38.6138 138.1 40.8184Z" fill="#D9D9D9"/>
<path d="M156.787 44.1587C156.12 44.8935 155.32 45.4948 154.253 45.4948C153.12 45.4948 152.053 44.8267 151.786 43.691C151.453 42.4217 151.386 41.1524 151.52 39.8831C151.586 38.4133 152.053 33.0021 152.72 31.7328C153.12 30.8643 154.053 30.3966 154.987 30.3966C155.32 30.3966 155.72 30.4635 156.12 30.6639C157.32 31.1983 157.587 32.668 157.053 33.8037C157.053 33.8706 156.787 34.2046 156.787 34.2714C156.653 35.1399 156.52 35.9415 156.453 36.81C157.987 34.6722 160.454 31.2651 163.187 30.7975C164.121 30.5971 165.121 30.7307 165.988 31.0647C167.321 31.5991 168.521 32.5344 169.655 33.5365C171.788 35.4071 173.722 37.6117 175.655 39.7495C177.055 41.2192 175.922 43.6242 173.988 43.6242C173.455 43.6242 172.855 43.4906 172.455 43.0898C170.121 40.7516 167.988 38.0793 165.388 36.0751C165.121 35.8079 164.387 35.2735 163.987 35.4071C162.121 36.0751 158.187 42.6889 156.787 44.1587Z" fill="#D9D9D9"/>
<path d="M185.62 44.696C184.19 45.4975 181.793 45.3288 180.7 44.1054C180.321 43.6836 180.069 43.1352 179.985 42.5868C179.564 40.7306 180.784 38.748 182.676 38.748C183.812 38.3261 185.325 38.6214 186.209 39.4229C187.176 40.3932 187.218 42.5446 186.545 43.7257C186.335 44.1476 185.998 44.4429 185.62 44.696Z" fill="#D9D9D9"/>
<path d="M85.0677 42.7557C85.4677 44.1586 84.3342 45.428 82.8674 45.4948C80.7339 45.6952 80.0672 42.7557 79.7338 40.6179C79.2005 37.4781 79.0004 34.2714 78.8671 31.0647C78.5337 24.6513 79.388 15.5616 79.988 9.21501C80.1568 7.62524 80.3598 5.74433 80.8566 4.27464C80.7485 4.06249 80.6742 3.83382 80.6391 3.60514C80.3258 2.22204 81.2344 0.744624 82.6442 0.744624C83.4901 0.430281 84.618 0.650321 85.276 1.24757C85.867 1.84063 85.9943 3.02593 85.7443 3.9186C85.7681 4.22948 85.7391 4.55317 85.6552 4.87263L84.7218 9.21501C83.7884 17.0313 83.1341 27.5908 83.8009 35.4071C84.0009 37.9457 84.4009 40.2839 85.0677 42.7557Z" fill="#D9D9D9"/>
<path fill-rule="evenodd" clip-rule="evenodd" d="M128.829 47.4321C127.696 52.7098 124.162 58.5887 118.095 58.5887C116.562 58.5887 113.095 58.1211 112.628 56.1837C112.577 55.9743 112.555 55.8729 112.52 55.7055C112.206 54.3224 113.115 52.845 114.525 52.845C115.371 52.5306 116.498 52.7507 117.156 53.3479C117.279 53.4708 117.381 53.6191 117.465 53.785C117.722 53.8232 117.978 53.8455 118.228 53.8455C120.562 53.8455 122.295 51.7745 123.162 49.7704C124.429 47.0981 124.696 44.0919 125.029 41.1524C122.762 43.4906 119.762 46.1628 116.295 46.1628C113.428 46.1628 110.761 44.4259 110.228 41.4864C109.428 36.7432 114.428 30.7307 118.762 28.6597C120.162 27.9916 122.429 27.3236 124.496 27.3236C125.762 27.3236 127.029 27.5908 127.763 28.3257C128.496 28.9269 128.963 29.7954 129.496 30.5971C129.829 30.9979 129.896 31.5992 129.829 32.1336C129.829 32.2672 129.629 32.6681 129.696 32.8017C130.363 34.2046 130.096 36.0083 129.963 37.6117C129.763 40.8852 129.496 44.2255 128.829 47.4321ZM116.695 41.4864C116.028 41.62 115.095 41.4864 114.895 40.8852C114.495 39.8831 115.628 37.7453 116.228 36.8768C117.295 35.3403 118.762 33.9374 120.362 33.0689C121.695 32.334 123.296 31.8664 124.829 32C125.029 32 125.229 32.6013 125.296 32.7349C123.562 35.1399 122.162 37.8121 119.895 39.6159C118.895 40.4175 117.895 41.2192 116.695 41.4864Z" fill="#D9D9D9"/>
<path fill-rule="evenodd" clip-rule="evenodd" d="M58.1295 17.6867C58.2564 17.6417 58.3839 17.5968 58.5169 17.5757C60.0998 17.3251 61.8401 18.0212 62.818 19.6791C62.9313 19.871 62.9914 20.0883 63.0345 20.3069C63.0481 20.3756 63.062 20.4413 63.0757 20.5056C63.1732 20.9645 63.2564 21.3557 63.0731 22.3115C63.0174 22.6015 62.8539 22.8618 62.7773 23.147C62.7387 23.2905 62.732 23.4407 62.7643 23.5862C62.7828 23.6695 62.8245 23.7463 62.8687 23.8192C65.0365 27.3893 65.6247 29.8615 65.6027 34.065C65.6023 34.1377 65.605 34.212 65.6246 34.2819C65.7076 34.5774 65.945 34.8095 66.2351 34.9245C67.3774 35.3774 68.2987 36.3484 68.641 37.6302C69.215 39.7796 67.9437 41.9888 65.8015 42.5648C64.5215 42.9089 63.2201 42.592 62.2575 41.8226C62.0179 41.6311 61.706 41.5399 61.4138 41.6091C61.3395 41.6267 61.2703 41.6631 61.2043 41.7015C57.7825 43.6947 55.2725 44.2806 50.866 44.4515C50.657 44.4408 50.3948 44.6998 50.1266 45.0857C49.4367 46.0955 48.9392 46.558 47.121 46.5116C45.0083 46.2807 43.9539 45.5496 43.249 44.155C42.7988 42.8591 42.8621 42.205 43.249 41.1003C43.4383 40.698 43.5208 40.31 43.4275 40.1424C41.3426 36.2605 40.7532 33.7964 40.632 29.666C40.5779 29.3248 40.3212 29.0558 40.0007 28.9296C38.8547 28.478 37.9299 27.5055 37.5868 26.2207C37.0128 24.0713 38.2841 21.8621 40.4263 21.2861C41.7067 20.9419 43.0084 21.2591 43.9711 22.029C44.2071 22.2176 44.5131 22.309 44.8015 22.2456C44.8839 22.2275 44.9601 22.1864 45.0324 22.1428C48.6004 19.9891 51.0314 19.2848 55.2306 19.397C55.3186 19.3994 55.4088 19.3972 55.4925 19.3701C55.6503 19.3189 55.7885 19.2229 55.8988 19.0985C56.0696 18.9057 56.1887 18.6673 56.3764 18.491C56.9361 17.9656 57.2503 17.8994 57.623 17.821C57.7752 17.789 57.9371 17.7549 58.1295 17.6867ZM53.7996 23.4419C51.3113 23.1384 49.185 23.9968 45.8711 25.8828C44.6234 26.6287 44.2644 27.207 44.281 28.5476C44.4336 32.0829 44.8829 34.1946 46.3272 36.8835C46.5732 37.5357 47.4376 37.5903 47.7986 37.0312C47.8405 36.9664 47.8662 36.8917 47.8879 36.8176C49.7402 31.876 51.4259 28.7635 54.7097 24.9486C54.7342 24.9237 54.7584 24.898 54.781 24.8712C54.846 24.7939 54.8984 24.7059 54.9413 24.6145C55.1282 24.2163 54.9643 23.7572 54.418 23.5659C54.2877 23.5216 54.0036 23.4752 53.833 23.4473L53.7996 23.4419ZM61.9578 35.3142C61.9788 31.6344 61.4976 29.4231 59.8074 26.6199C59.7847 26.5822 59.7642 26.5428 59.7437 26.5035C59.7275 26.4725 59.7114 26.4416 59.6942 26.4114C59.4062 25.9072 58.6808 25.8498 58.3178 26.3358C54.7094 30.4834 52.8817 33.6821 50.9008 39.2339C50.6662 39.7791 51.0524 40.3673 51.6096 40.3929C51.6585 40.3952 51.7077 40.3946 51.7568 40.3941C51.8167 40.3935 51.8765 40.3929 51.9359 40.3972C54.6903 40.5985 56.8338 40.0212 60.3453 37.9674C61.5574 37.2883 61.8619 36.6776 61.9578 35.3142Z" fill="#D9D9D9"/>
</svg>
