<svg width="64" height="64" viewBox="0 0 64 64" fill="none" xmlns="http://www.w3.org/2000/svg">
<g clip-path="url(#clip0_3133_32150)">
<path d="M0.310276 7.69296C1.79708 5.11773 5.09007 4.23549 7.66532 5.72221C10.2406 7.20905 11.1229 10.502 9.63606 13.0773L7.35404 17.0282L11.3071 19.3113C13.8821 20.7982 14.7646 24.0912 13.2778 26.6664C11.7909 29.2412 8.49785 30.1236 5.92278 28.6371L1.96974 26.354L-0.311232 30.3071C-1.79814 32.8821 -5.09112 33.7646 -7.66627 32.2778C-10.2414 30.7911 -11.1236 27.498 -9.63701 24.9228L-7.35605 20.9697L-11.307 18.6887C-13.8823 17.2019 -14.7646 13.909 -13.2777 11.3337C-11.7908 8.75853 -8.4979 7.87613 -5.92269 9.36294L-1.97174 11.6439L0.310276 7.69296Z" fill="black"/>
<path d="M32.3103 39.693C33.7971 37.1177 37.0901 36.2355 39.6653 37.7222C42.2406 39.209 43.1229 42.502 41.6361 45.0773L39.354 49.0282L43.3071 51.3113C45.8821 52.7982 46.7646 56.0912 45.2778 58.6664C43.7909 61.2412 40.4979 62.1236 37.9228 60.6371L33.9697 58.354L31.6888 62.3071C30.2019 64.8821 26.9089 65.7646 24.3337 64.2778C21.7586 62.7911 20.8764 59.498 22.363 56.9228L24.644 52.9697L20.693 50.6887C18.1177 49.2019 17.2354 45.909 18.7223 43.3337C20.2092 40.7585 23.5021 39.8761 26.0773 41.3629L30.0283 43.6439L32.3103 39.693Z" fill="black"/>
<path d="M32.3103 -24.307C33.7971 -26.8823 37.0901 -27.7645 39.6653 -26.2778C42.2406 -24.791 43.1229 -21.498 41.6361 -18.9227L39.354 -14.9718L43.3071 -12.6887C45.8821 -11.2018 46.7646 -7.90878 45.2778 -5.33363C43.7909 -2.75881 40.4979 -1.87641 37.9228 -3.36289L33.9697 -5.64596L31.6888 -1.69291C30.2019 0.882105 26.9089 1.76456 24.3337 0.277837C21.7586 -1.20894 20.8764 -4.50199 22.363 -7.07723L24.644 -11.0303L20.693 -13.3113C18.1177 -14.7981 17.2354 -18.091 18.7223 -20.6663C20.2092 -23.2415 23.5021 -24.1239 26.0773 -22.6371L30.0283 -20.3561L32.3103 -24.307Z" fill="black"/>
<path d="M64.3103 7.69296C65.7971 5.11773 69.0901 4.23549 71.6653 5.72221C74.2406 7.20905 75.1229 10.502 73.6361 13.0773L71.354 17.0282L75.3071 19.3113C77.8821 20.7982 78.7646 24.0912 77.2778 26.6664C75.7909 29.2412 72.4979 30.1236 69.9228 28.6371L65.9697 26.354L63.6888 30.3071C62.2019 32.8821 58.9089 33.7646 56.3337 32.2778C53.7586 30.7911 52.8764 27.498 54.363 24.9228L56.644 20.9697L52.693 18.6887C50.1177 17.2019 49.2354 13.909 50.7223 11.3337C52.2092 8.75853 55.5021 7.87613 58.0773 9.36294L62.0283 11.6439L64.3103 7.69296Z" fill="black"/>
</g>
<defs>
<clipPath id="clip0_3133_32150">
<rect width="64" height="64" />
</clipPath>
</defs>
</svg>
