<svg width="64" height="64" viewBox="0 0 64 64" fill="none" xmlns="http://www.w3.org/2000/svg">
<g clip-path="url(#clip0_3133_32150)">
<path d="M-5.18623 6.53309C-4.03251 5.14139 -2.09317 4.63318 -0.382503 5.27427C-0.382503 5.27427 2.59296 7.08083 4.89266 7.9473C7.21612 8.82273 11.287 9.64752 11.287 9.64752C12.9977 10.2886 14.0906 11.9332 13.9941 13.7211C13.9941 13.7211 13.0915 16.9422 12.9072 19.2159C12.6978 21.798 13.336 25.9176 13.336 25.9176C13.2395 27.7055 11.9756 29.2301 10.2053 29.694C10.2053 29.694 6.39478 30.0132 3.9937 30.6424C1.59252 31.2716 -1.87089 32.8586 -1.87089 32.8586C-3.64118 33.3225 -5.5152 32.6202 -6.51282 31.119C-6.51282 31.119 -8.06607 27.2391 -9.56745 25.1053C-10.8895 23.2264 -13.3183 20.8783 -13.3183 20.8783C-14.3159 19.3771 -14.2102 17.4185 -13.0565 16.0267C-13.0565 16.0267 -9.95244 13.3218 -8.38779 11.4275C-6.83925 9.55257 -5.18623 6.53309 -5.18623 6.53309Z" fill="black"/>
<path d="M26.8138 38.5331C27.9675 37.1414 29.9068 36.6332 31.6175 37.2743C31.6175 37.2743 34.593 39.0808 36.8927 39.9473C39.2161 40.8227 43.287 41.6475 43.287 41.6475C44.9977 42.2886 46.0906 43.9332 45.9941 45.7211C45.9941 45.7211 45.0915 48.9422 44.9072 51.2159C44.6978 53.798 45.336 57.9176 45.336 57.9176C45.2395 59.7055 43.9756 61.2301 42.2053 61.694C42.2053 61.694 38.3948 62.0132 35.9937 62.6424C33.5925 63.2716 30.1291 64.8586 30.1291 64.8586C28.3588 65.3225 26.4848 64.6202 25.4872 63.119C25.4872 63.119 23.9339 59.2391 22.4326 57.1053C21.1105 55.2264 18.6817 52.8783 18.6817 52.8783C17.6841 51.3771 17.7898 49.4185 18.9435 48.0267C18.9435 48.0267 22.0476 45.3218 23.6122 43.4275C25.1607 41.5526 26.8138 38.5331 26.8138 38.5331Z" fill="black"/>
<path d="M26.8138 -25.4669C27.9675 -26.8586 29.9068 -27.3668 31.6175 -26.7257C31.6175 -26.7257 34.593 -24.9192 36.8927 -24.0527C39.2161 -23.1773 43.287 -22.3525 43.287 -22.3525C44.9977 -21.7114 46.0906 -20.0668 45.9941 -18.2789C45.9941 -18.2789 45.0915 -15.0578 44.9072 -12.7841C44.6978 -10.202 45.336 -6.08244 45.336 -6.08244C45.2395 -4.29453 43.9756 -2.76993 42.2053 -2.30602C42.2053 -2.30602 38.3948 -1.98678 35.9937 -1.3576C33.5925 -0.728387 30.1291 0.858564 30.1291 0.858564C28.3588 1.32247 26.4848 0.620164 25.4872 -0.881042C25.4872 -0.881042 23.9339 -4.76086 22.4326 -6.89465C21.1105 -8.77365 18.6817 -11.1217 18.6817 -11.1217C17.6841 -12.6229 17.7898 -14.5815 18.9435 -15.9733C18.9435 -15.9733 22.0476 -18.6782 23.6122 -20.5725C25.1607 -22.4474 26.8138 -25.4669 26.8138 -25.4669Z" fill="black"/>
<path d="M58.8138 6.53309C59.9675 5.14139 61.9068 4.63318 63.6175 5.27427C63.6175 5.27427 66.593 7.08083 68.8927 7.9473C71.2161 8.82273 75.287 9.64752 75.287 9.64752C76.9977 10.2886 78.0906 11.9332 77.9941 13.7211C77.9941 13.7211 77.0915 16.9422 76.9072 19.2159C76.6978 21.798 77.336 25.9176 77.336 25.9176C77.2395 27.7055 75.9756 29.2301 74.2053 29.694C74.2053 29.694 70.3948 30.0132 67.9937 30.6424C65.5925 31.2716 62.1291 32.8586 62.1291 32.8586C60.3588 33.3225 58.4848 32.6202 57.4872 31.119C57.4872 31.119 55.9339 27.2391 54.4326 25.1053C53.1105 23.2264 50.6817 20.8783 50.6817 20.8783C49.6841 19.3771 49.7898 17.4185 50.9435 16.0267C50.9435 16.0267 54.0476 13.3218 55.6122 11.4275C57.1607 9.55257 58.8138 6.53309 58.8138 6.53309Z" fill="black"/>
</g>
<defs>
<clipPath id="clip0_3133_32150">
<rect width="64" height="64" />
</clipPath>
</defs>
</svg>
