<svg width="16" height="16" viewBox="0 0 16 16" fill="none" xmlns="http://www.w3.org/2000/svg">
<mask id="mask0_3136_33641" style="mask-type:alpha" maskUnits="userSpaceOnUse" x="0" y="0" width="16" height="16">
<g clip-path="url(#clip0_3136_33641)">
<path d="M3.48486 -61.569L0.656436 -58.7406L74.7407 15.3437L77.5691 12.5152L3.48486 -61.569Z" fill="black"/>
<path d="M-4.51611 -53.5681L-7.34454 -50.7397L66.7397 23.3446L69.5682 20.5162L-4.51611 -53.5681Z" fill="black"/>
<path d="M-12.5171 -45.5672L-15.3455 -42.7388L58.7388 31.3455L61.5672 28.5171L-12.5171 -45.5672Z" fill="black"/>
<path d="M-20.5181 -37.5663L-23.3465 -34.7379L50.7378 39.3464L53.5662 36.518L-20.5181 -37.5663Z" fill="black"/>
<path d="M-28.5186 -29.5654L-31.347 -26.7369L42.7373 47.3473L45.5657 44.5189L-28.5186 -29.5654Z" fill="black"/>
<path d="M-36.5195 -21.5645L-39.348 -18.736L34.7363 55.3482L37.5647 52.5198L-36.5195 -21.5645Z" fill="black"/>
<path d="M-44.5205 -13.5635L-47.3489 -10.7351L26.7353 63.3492L29.5638 60.5207L-44.5205 -13.5635Z" fill="black"/>
<path d="M-52.5215 -5.56262L-55.3499 -2.7342L18.7344 71.3501L21.5628 68.5217L-52.5215 -5.56262Z" fill="black"/>
<path d="M-60.5225 2.43829L-63.3509 5.26672L10.7334 79.351L13.5618 76.5226L-60.5225 2.43829Z" fill="black"/>
<path d="M-68.5234 10.4392L-71.3519 13.2676L2.73241 87.3519L5.56084 84.5235L-68.5234 10.4392Z" fill="black"/>
</g>
</mask>
<g mask="url(#mask0_3136_33641)">
<path d="M-0.5 16.5H16V0H-0.5V16.5Z" fill="black"/>
</g>
<defs>
<clipPath id="clip0_3136_33641">
<rect width="16" height="16" fill="white" transform="matrix(-1 0 0 1 16 0)"/>
</clipPath>
</defs>
</svg>
