<svg width="64" height="64" viewBox="0 0 64 64" fill="none" xmlns="http://www.w3.org/2000/svg">
<g clip-path="url(#clip0_3133_32150)">
<path fill-rule="evenodd" clip-rule="evenodd" d="M3.57628e-07 11C4.41828 11 8 14.5817 8 19C8 23.4183 4.41828 27 3.57628e-07 27C-4.41828 27 -8 23.4183 -8 19C-8 14.5817 -4.41828 11 3.57628e-07 11ZM2.24163 16.1669C2.22952 15.721 1.72469 15.4297 1.33259 15.6423C0.742729 15.9621 -0.0312592 16.3408 -0.666852 16.5112C-1.30245 16.6815 -2.16238 16.7404 -2.83315 16.7584C-3.27896 16.7705 -3.5703 17.2753 -3.3577 17.6674C-3.03786 18.2573 -2.65915 19.0313 -2.48884 19.6669C-2.31853 20.3025 -2.25957 21.1624 -2.24163 21.8331C-2.22952 22.279 -1.72469 22.5703 -1.33259 22.3577C-0.742728 22.0379 0.03126 21.6592 0.666853 21.4888C1.30245 21.3185 2.16238 21.2596 2.83315 21.2416C3.27896 21.2295 3.5703 20.7247 3.3577 20.3326C3.03786 19.7427 2.65915 18.9687 2.48884 18.3331C2.31853 17.6975 2.25957 16.8376 2.24163 16.1669Z" fill="black"/>
<path fill-rule="evenodd" clip-rule="evenodd" d="M32 43C36.4183 43 40 46.5817 40 51C40 55.4183 36.4183 59 32 59C27.5817 59 24 55.4183 24 51C24 46.5817 27.5817 43 32 43ZM34.2416 48.1669C34.2295 47.721 33.7247 47.4297 33.3326 47.6423C32.7427 47.9621 31.9687 48.3408 31.3331 48.5112C30.6975 48.6815 29.8376 48.7404 29.1669 48.7584C28.721 48.7705 28.4297 49.2753 28.6423 49.6674C28.9621 50.2573 29.3408 51.0313 29.5112 51.6669C29.6815 52.3025 29.7404 53.1624 29.7584 53.8331C29.7705 54.279 30.2753 54.5703 30.6674 54.3577C31.2573 54.0379 32.0313 53.6592 32.6669 53.4888C33.3025 53.3185 34.1624 53.2596 34.8331 53.2416C35.279 53.2295 35.5703 52.7247 35.3577 52.3326C35.0379 51.7427 34.6592 50.9687 34.4888 50.3331C34.3185 49.6975 34.2596 48.8376 34.2416 48.1669Z" fill="black"/>
<path fill-rule="evenodd" clip-rule="evenodd" d="M64 11C68.4183 11 72 14.5817 72 19C72 23.4183 68.4183 27 64 27C59.5817 27 56 23.4183 56 19C56 14.5817 59.5817 11 64 11ZM66.2416 16.1669C66.2295 15.721 65.7247 15.4297 65.3326 15.6423C64.7427 15.9621 63.9687 16.3408 63.3331 16.5112C62.6975 16.6815 61.8376 16.7404 61.1669 16.7584C60.721 16.7705 60.4297 17.2753 60.6423 17.6674C60.9621 18.2573 61.3408 19.0313 61.5112 19.6669C61.6815 20.3025 61.7404 21.1624 61.7584 21.8331C61.7705 22.279 62.2753 22.5703 62.6674 22.3577C63.2573 22.0379 64.0313 21.6592 64.6669 21.4888C65.3025 21.3185 66.1624 21.2596 66.8331 21.2416C67.279 21.2295 67.5703 20.7247 67.3577 20.3326C67.0379 19.7427 66.6592 18.9687 66.4888 18.3331C66.3185 17.6975 66.2596 16.8376 66.2416 16.1669Z" fill="black"/>
</g>
<defs>
<clipPath id="clip0_3133_32150">
<rect width="64" height="64" fill="white"/>
</clipPath>
</defs>
</svg>

