<svg width="32" height="32" viewBox="0 0 32 32" fill="none" xmlns="http://www.w3.org/2000/svg">
<mask id="mask0_3134_32654" style="mask-type:alpha" maskUnits="userSpaceOnUse" x="0" y="0" width="32" height="32">
<g clip-path="url(#clip0_3134_32654)">
<path d="M20.5151 -53.569L23.3436 -50.7406L-50.7407 23.3437L-53.5691 20.5152L20.5151 -53.569Z" fill="black"/>
<path d="M28.5161 -45.5681L31.3445 -42.7397L-42.7397 31.3446L-45.5682 28.5162L28.5161 -45.5681Z" fill="black"/>
<path d="M36.5171 -37.5672L39.3455 -34.7388L-34.7388 39.3455L-37.5672 36.5171L36.5171 -37.5672Z" fill="black"/>
<path d="M44.5181 -29.5663L47.3465 -26.7379L-26.7378 47.3464L-29.5662 44.518L44.5181 -29.5663Z" fill="black"/>
<path d="M52.5186 -21.5654L55.347 -18.7369L-18.7373 55.3473L-21.5657 52.5189L52.5186 -21.5654Z" fill="black"/>
<path d="M60.5195 -13.5645L63.348 -10.736L-10.7363 63.3482L-13.5647 60.5198L60.5195 -13.5645Z" fill="black"/>
<path d="M68.5205 -5.56354L71.3489 -2.73511L-2.73534 71.3492L-5.56377 68.5207L68.5205 -5.56354Z" fill="black"/>
<path d="M76.5215 2.43738L79.3499 5.2658L5.26564 79.3501L2.43721 76.5217L76.5215 2.43738Z" fill="black"/>
<path d="M84.5225 10.4383L87.3509 13.2667L13.2666 87.351L10.4382 84.5226L84.5225 10.4383Z" fill="black"/>
<path d="M92.5234 18.4392L95.3519 21.2676L21.2676 95.3519L18.4392 92.5235L92.5234 18.4392Z" fill="black"/>
<path d="M100.524 26.4401L103.353 29.2686L29.2686 103.353L26.4401 100.524L100.524 26.4401Z" fill="black"/>
</g>
</mask>
<g mask="url(#mask0_3134_32654)">
<path d="M33 33H0V0H33V33Z" fill="black"/>
</g>
<defs>
<clipPath id="clip0_3134_32654">
<rect width="32" height="32" />
</clipPath>
</defs>
</svg>
