<svg width="64" height="64" viewBox="0 0 64 64" fill="none" xmlns="http://www.w3.org/2000/svg">
<g clip-path="url(#clip0_3133_32150)">
<path d="M-2.96356 11.8761C-2.30429 11.0808 -1.1961 10.7904 -0.218574 11.1567C-0.218574 11.1567 1.48169 12.189 2.7958 12.6842C4.1235 13.1844 6.44972 13.6557 6.44972 13.6557C7.42724 14.0221 8.05175 14.9618 7.99662 15.9835C7.99662 15.9835 7.48084 17.8241 7.37552 19.1234C7.2559 20.5988 7.62057 22.9529 7.62057 22.9529C7.56544 23.9746 6.84322 24.8458 5.83163 25.1108C5.83163 25.1108 3.65416 25.2933 2.28211 25.6528C0.910008 26.0123 -1.06908 26.9192 -1.06908 26.9192C-2.08067 27.1843 -3.15154 26.7829 -3.72161 25.9251C-3.72161 25.9251 -4.60919 23.7081 -5.46711 22.4888C-6.2226 21.4151 -7.61043 20.0733 -7.61043 20.0733C-8.1805 19.2155 -8.12011 18.0963 -7.46084 17.301C-7.46084 17.301 -5.68711 15.7553 -4.79302 14.6728C-3.90814 13.6015 -2.96356 11.8761 -2.96356 11.8761Z" fill="black"/>
<path d="M29.0364 43.8761C29.6957 43.0808 30.8039 42.7904 31.7814 43.1567C31.7814 43.1567 33.4817 44.189 34.7958 44.6842C36.1235 45.1844 38.4497 45.6557 38.4497 45.6557C39.4272 46.0221 40.0518 46.9618 39.9966 47.9835C39.9966 47.9835 39.4808 49.8241 39.3755 51.1234C39.2559 52.5988 39.6206 54.9529 39.6206 54.9529C39.5654 55.9746 38.8432 56.8458 37.8316 57.1108C37.8316 57.1108 35.6542 57.2933 34.2821 57.6528C32.91 58.0123 30.9309 58.9192 30.9309 58.9192C29.9193 59.1843 28.8485 58.7829 28.2784 57.9251C28.2784 57.9251 27.3908 55.7081 26.5329 54.4888C25.7774 53.4151 24.3896 52.0733 24.3896 52.0733C23.8195 51.2155 23.8799 50.0963 24.5392 49.301C24.5392 49.301 26.3129 47.7553 27.207 46.6728C28.0919 45.6015 29.0364 43.8761 29.0364 43.8761Z" fill="black"/>
<path d="M61.0364 11.8761C61.6957 11.0808 62.8039 10.7904 63.7814 11.1567C63.7814 11.1567 65.4817 12.189 66.7958 12.6842C68.1235 13.1844 70.4497 13.6557 70.4497 13.6557C71.4272 14.0221 72.0518 14.9618 71.9966 15.9835C71.9966 15.9835 71.4808 17.8241 71.3755 19.1234C71.2559 20.5988 71.6206 22.9529 71.6206 22.9529C71.5654 23.9746 70.8432 24.8458 69.8316 25.1108C69.8316 25.1108 67.6542 25.2933 66.2821 25.6528C64.91 26.0123 62.9309 26.9192 62.9309 26.9192C61.9193 27.1843 60.8485 26.7829 60.2784 25.9251C60.2784 25.9251 59.3908 23.7081 58.5329 22.4888C57.7774 21.4151 56.3896 20.0733 56.3896 20.0733C55.8195 19.2155 55.8799 18.0963 56.5392 17.301C56.5392 17.301 58.3129 15.7553 59.207 14.6728C60.0919 13.6015 61.0364 11.8761 61.0364 11.8761Z" fill="black"/>
</g>
<defs>
<clipPath id="clip0_3133_32150">
<rect width="64" height="64" fill="white"/>
</clipPath>
</defs>
</svg>
