<svg width="64" height="64" viewBox="0 0 64 64" fill="none" xmlns="http://www.w3.org/2000/svg">
<g clip-path="url(#clip0_3133_32150)">
<path d="M-7.83435 15.8905C-8.33054 14.9754 -7.65064 13.7978 -6.61007 13.77C-5.04495 13.7281 -3.03916 13.5899 -1.5561 13.1926C-0.0730367 12.7952 1.73312 11.912 3.10949 11.1656C4.02456 10.6695 5.20218 11.3494 5.23001 12.3899C5.27186 13.9551 5.41006 15.9608 5.80745 17.4439C6.20483 18.927 7.08804 20.7331 7.83435 22.1095C8.33054 23.0246 7.65065 24.2022 6.61007 24.23C5.04495 24.2719 3.03916 24.4101 1.5561 24.8074C0.073038 25.2048 -1.73312 26.088 -3.10949 26.8344C-4.02456 27.3305 -5.20218 26.6506 -5.23 25.6101C-5.27186 24.0449 -5.41006 22.0392 -5.80744 20.5561C-6.20483 19.073 -7.08804 17.2669 -7.83435 15.8905Z" fill="black"/>
<path d="M24.1656 47.8905C23.6695 46.9754 24.3494 45.7978 25.3899 45.77C26.9551 45.7281 28.9608 45.5899 30.4439 45.1926C31.927 44.7952 33.7331 43.912 35.1095 43.1656C36.0246 42.6695 37.2022 43.3494 37.23 44.3899C37.2719 45.9551 37.4101 47.9608 37.8074 49.4439C38.2048 50.927 39.088 52.7331 39.8344 54.1095C40.3305 55.0246 39.6506 56.2022 38.6101 56.23C37.0449 56.2719 35.0392 56.4101 33.5561 56.8074C32.073 57.2048 30.2669 58.088 28.8905 58.8344C27.9754 59.3305 26.7978 58.6506 26.77 57.6101C26.7281 56.0449 26.5899 54.0392 26.1926 52.5561C25.7952 51.073 24.912 49.2669 24.1656 47.8905Z" fill="black"/>
<path d="M56.1656 15.8905C55.6695 14.9754 56.3494 13.7978 57.3899 13.77C58.9551 13.7281 60.9608 13.5899 62.4439 13.1926C63.927 12.7952 65.7331 11.912 67.1095 11.1656C68.0246 10.6695 69.2022 11.3494 69.23 12.3899C69.2719 13.9551 69.4101 15.9608 69.8074 17.4439C70.2048 18.927 71.088 20.7331 71.8344 22.1095C72.3305 23.0246 71.6506 24.2022 70.6101 24.23C69.0449 24.2719 67.0392 24.4101 65.5561 24.8074C64.073 25.2048 62.2669 26.088 60.8905 26.8344C59.9754 27.3305 58.7978 26.6506 58.77 25.6101C58.7281 24.0449 58.5899 22.0392 58.1926 20.5561C57.7952 19.073 56.912 17.2669 56.1656 15.8905Z" fill="black"/>
</g>
<defs>
<clipPath id="clip0_3133_32150">
<rect width="64" height="64" fill="white"/>
</clipPath>
</defs>
</svg>
