<svg width="64" height="64" viewBox="0 0 64 64" fill="none" xmlns="http://www.w3.org/2000/svg">
<g clip-path="url(#clip0_3133_32150)">
<path d="M2.03743 23.1047C3.18028 22.7985 4.22694 23.4809 4.5 24.5C4.77279 25.519 4.16917 26.4896 3.02645 26.7958C1.8838 27.1019 0.800137 26.5188 0.52692 25.5C0.25388 24.481 0.894704 23.4111 2.03743 23.1047Z" fill="black"/>
<path d="M-1.05095 11.326C0.56037 10.9405 2.30974 11.0994 3.66432 11.8237C5.09722 12.5899 6.12703 14.0498 5.76644 15.9637C5.59438 16.8761 5.12015 17.552 4.68493 18.0399C4.47854 18.2713 4.26414 18.4787 4.10457 18.6322C3.92767 18.8023 3.81048 18.914 3.70239 19.0291C3.50801 19.2362 3.45576 19.34 3.43041 19.4214C3.40555 19.5015 3.35299 19.7361 3.48902 20.2439C3.76207 21.2629 3.05669 22.3373 1.91383 22.6435C0.771025 22.9496 -0.377081 22.372 -0.650126 21.353C-0.915656 20.3618 -0.930482 19.4425 -0.662442 18.579C-0.394866 17.717 0.101766 17.0866 0.52692 16.6336C0.728693 16.4186 0.939779 16.2177 1.08561 16.0775C1.24891 15.9204 1.35262 15.8182 1.43596 15.7248C1.51325 15.6381 1.54478 15.5892 1.55812 15.5657C1.56786 15.5484 1.57144 15.5406 1.57361 15.5292C1.59701 15.4049 1.5721 15.3624 1.5649 15.3495C1.55017 15.323 1.49809 15.252 1.34848 15.1719C1.01951 14.9961 0.430511 14.8998 -0.188143 15.0478C-0.9758 15.2365 -1.6621 16.1155 -1.57768 16.9367C-1.469 17.9887 -2.32949 18.9707 -3.49935 19.1299C-4.6693 19.2889 -5.70636 18.5651 -5.81509 17.513C-6.07791 14.9668 -4.18729 12.0765 -1.05095 11.326Z" fill="black"/>
<path d="M34.0374 55.1047C35.1803 54.7985 36.2269 55.4809 36.5 56.5C36.7728 57.519 36.1692 58.4896 35.0264 58.7958C33.8838 59.1019 32.8001 58.5188 32.5269 57.5C32.2539 56.481 32.8947 55.4111 34.0374 55.1047Z" fill="black"/>
<path d="M30.949 43.326C32.5604 42.9405 34.3097 43.0994 35.6643 43.8237C37.0972 44.5899 38.127 46.0498 37.7664 47.9637C37.5944 48.8761 37.1202 49.552 36.6849 50.0399C36.4785 50.2713 36.2641 50.4787 36.1046 50.6322C35.9277 50.8023 35.8105 50.914 35.7024 51.0291C35.508 51.2362 35.4558 51.34 35.4304 51.4214C35.4056 51.5015 35.353 51.7361 35.489 52.2439C35.7621 53.2629 35.0567 54.3373 33.9138 54.6435C32.771 54.9496 31.6229 54.372 31.3499 53.353C31.0843 52.3618 31.0695 51.4425 31.3376 50.579C31.6051 49.717 32.1018 49.0866 32.5269 48.6336C32.7287 48.4186 32.9398 48.2177 33.0856 48.0775C33.2489 47.9204 33.3526 47.8182 33.436 47.7248C33.5133 47.6381 33.5448 47.5892 33.5581 47.5657C33.5679 47.5484 33.5714 47.5406 33.5736 47.5292C33.597 47.4049 33.5721 47.3624 33.5649 47.3495C33.5502 47.323 33.4981 47.252 33.3485 47.1719C33.0195 46.9961 32.4305 46.8998 31.8119 47.0478C31.0242 47.2365 30.3379 48.1155 30.4223 48.9367C30.531 49.9887 29.6705 50.9707 28.5007 51.1299C27.3307 51.2889 26.2936 50.5651 26.1849 49.513C25.9221 46.9668 27.8127 44.0765 30.949 43.326Z" fill="black"/>
<path d="M66.0374 23.1047C67.1803 22.7985 68.2269 23.4809 68.5 24.5C68.7728 25.519 68.1692 26.4896 67.0264 26.7958C65.8838 27.1019 64.8001 26.5188 64.5269 25.5C64.2539 24.481 64.8947 23.4111 66.0374 23.1047Z" fill="black"/>
<path d="M62.949 11.326C64.5604 10.9405 66.3097 11.0994 67.6643 11.8237C69.0972 12.5899 70.127 14.0498 69.7664 15.9637C69.5944 16.8761 69.1202 17.552 68.6849 18.0399C68.4785 18.2713 68.2641 18.4787 68.1046 18.6322C67.9277 18.8023 67.8105 18.914 67.7024 19.0291C67.508 19.2362 67.4558 19.34 67.4304 19.4214C67.4056 19.5015 67.353 19.7361 67.489 20.2439C67.7621 21.2629 67.0567 22.3373 65.9138 22.6435C64.771 22.9496 63.6229 22.372 63.3499 21.353C63.0843 20.3618 63.0695 19.4425 63.3376 18.579C63.6051 17.717 64.1018 17.0866 64.5269 16.6336C64.7287 16.4186 64.9398 16.2177 65.0856 16.0775C65.2489 15.9204 65.3526 15.8182 65.436 15.7248C65.5133 15.6381 65.5448 15.5892 65.5581 15.5657C65.5679 15.5484 65.5714 15.5406 65.5736 15.5292C65.597 15.4049 65.5721 15.3624 65.5649 15.3495C65.5502 15.323 65.4981 15.252 65.3485 15.1719C65.0195 14.9961 64.4305 14.8998 63.8119 15.0478C63.0242 15.2365 62.3379 16.1155 62.4223 16.9367C62.531 17.9887 61.6705 18.9707 60.5007 19.1299C59.3307 19.2889 58.2936 18.5651 58.1849 17.513C57.9221 14.9668 59.8127 12.0765 62.949 11.326Z" fill="black"/>
</g>
<defs>
<clipPath id="clip0_3133_32150">
<rect width="64" height="64" fill="white"/>
</clipPath>
</defs>
</svg>
