<svg width="64" height="64" viewBox="0 0 64 64" fill="none" xmlns="http://www.w3.org/2000/svg">
<g clip-path="url(#clip0_3133_32150)">
<path d="M0.177301 12.5388C1.02691 11.0673 2.90861 10.5631 4.38018 11.4127C5.85177 12.2623 6.35594 14.144 5.50632 15.6156L4.20231 17.8733L6.46119 19.1779C7.93261 20.0276 8.43691 21.9093 7.58733 23.3808C6.73768 24.8521 4.85592 25.3563 3.38445 24.5069L1.12556 23.2023L-0.177846 25.4612C-1.02751 26.9326 -2.90921 27.4369 -4.38073 26.5873C-5.85225 25.7377 -6.35634 23.856 -5.50686 22.3844L-4.20345 20.1256L-6.46114 18.8221C-7.93272 17.9725 -8.43689 16.0908 -7.58727 14.6192C-6.73763 13.1477 -4.85594 12.6435 -3.38439 13.4931L-1.12671 14.7965L0.177301 12.5388Z" fill="black"/>
<path d="M32.1773 44.5388C33.0269 43.0673 34.9086 42.5631 36.3802 43.4127C37.8518 44.2623 38.3559 46.144 37.5063 47.6156L36.2023 49.8733L38.4612 51.1779C39.9326 52.0276 40.4369 53.9093 39.5873 55.3808C38.7377 56.8521 36.8559 57.3563 35.3844 56.5069L33.1256 55.2023L31.8222 57.4612C30.9725 58.9326 29.0908 59.4369 27.6193 58.5873C26.1477 57.7377 25.6437 55.856 26.4931 54.3844L27.7965 52.1256L25.5389 50.8221C24.0673 49.9725 23.5631 48.0908 24.4127 46.6192C25.2624 45.1477 27.1441 44.6435 28.6156 45.4931L30.8733 46.7965L32.1773 44.5388Z" fill="black"/>
<path d="M64.1773 12.5388C65.0269 11.0673 66.9086 10.5631 68.3802 11.4127C69.8518 12.2623 70.3559 14.144 69.5063 15.6156L68.2023 17.8733L70.4612 19.1779C71.9326 20.0276 72.4369 21.9093 71.5873 23.3808C70.7377 24.8521 68.8559 25.3563 67.3844 24.5069L65.1256 23.2023L63.8222 25.4612C62.9725 26.9326 61.0908 27.4369 59.6193 26.5873C58.1477 25.7377 57.6437 23.856 58.4931 22.3844L59.7965 20.1256L57.5389 18.8221C56.0673 17.9725 55.5631 16.0908 56.4127 14.6192C57.2624 13.1477 59.1441 12.6435 60.6156 13.4931L62.8733 14.7965L64.1773 12.5388Z" fill="black"/>
</g>
<defs>
<clipPath id="clip0_3133_32150">
<rect width="64" height="64" fill="white"/>
</clipPath>
</defs>
</svg>

