<svg width="64" height="64" viewBox="0 0 64 64" fill="none" xmlns="http://www.w3.org/2000/svg">
<g clip-path="url(#clip0_3133_32150)">
<g clip-path="url(#clip1_3133_32150)">
<path fill-rule="evenodd" clip-rule="evenodd" d="M3.66434 11.0871C2.35163 10.7356 1.00268 11.4787 0.569602 12.7587L0.516625 12.918L0.351478 12.9473C-1.04714 13.1986 -2.07185 13.4872 -3.43612 13.9979L-3.5957 14.0574L-3.72126 13.9434C-3.97479 13.7151 -4.27622 13.5347 -4.61612 13.4211L-4.76385 13.377C-6.13182 13.0107 -7.54137 13.8315 -7.91107 15.2103L-7.96558 15.4646C-8.17483 16.7369 -7.41216 17.9813 -6.16547 18.3491L-5.99753 18.3986L-5.96768 18.5721C-5.72605 19.9788 -5.45838 21.0023 -4.97273 22.3383L-4.91255 22.505L-5.03468 22.6331C-5.32375 22.9367 -5.54275 23.3167 -5.6597 23.7526C-6.02944 25.1316 -5.22033 26.5463 -3.8525 26.9125L-3.60262 26.9668C-2.3534 27.171 -1.12715 26.4161 -0.741176 25.1834L-0.688602 25.017L-0.51785 24.9881C0.947795 24.7367 1.98878 24.4512 3.37216 23.9339L3.53685 23.8723L3.66388 23.9936C3.96295 24.2796 4.33633 24.4965 4.76455 24.6112L5.02109 24.6661C6.30423 24.8724 7.56413 24.0701 7.91071 22.7776C8.27232 21.4282 7.50336 20.046 6.18743 19.6448L6.02008 19.5931L5.99263 19.4191C5.7549 17.9364 5.46643 16.8856 4.94357 15.4764L4.88739 15.3246L4.98865 15.1978C5.15265 14.993 5.28861 14.7621 5.38671 14.5081L5.47154 14.247C5.84128 12.8681 5.03217 11.4534 3.66434 11.0871ZM3.74908 20.0076C3.57915 18.8137 3.35989 17.939 2.94339 16.8447L2.75933 16.3623L2.45379 16.7791C1.11567 18.602 0.308784 20.0022 -0.639799 22.1657L-0.850893 22.6469L-0.336223 22.5595C0.646604 22.392 1.50995 22.1506 2.77823 21.6688L2.91521 21.617L2.95238 21.4741C2.95361 21.4693 2.95448 21.4647 2.9552 21.4608L2.9562 21.4556L2.95735 21.4513C3.08455 20.9772 3.33551 20.5707 3.6648 20.2539L3.7696 20.1521L3.74908 20.0076ZM-2.51682 20.7922C-1.61347 18.9302 -0.840184 17.5786 0.327506 15.8421L0.705273 15.2791L0.0437342 15.4042C-0.936313 15.5883 -1.73884 15.83 -2.75919 16.2255L-2.90129 16.2794L-2.93457 16.429C-2.94016 16.454 -2.94504 16.4806 -2.94814 16.4966C-2.95182 16.5156 -2.95414 16.5275 -2.95665 16.5369C-3.08027 16.9975 -3.3229 17.3938 -3.63982 17.7075L-3.74383 17.8106L-3.72013 17.956C-3.55116 19.008 -3.3647 19.8188 -3.03572 20.7635C-2.70673 21.7082 -2.81294 21.4034 -2.81294 21.4034L-2.51682 20.7922Z" fill="black"/>
</g>
<g clip-path="url(#clip2_3133_32150)">
<path fill-rule="evenodd" clip-rule="evenodd" d="M35.6643 43.0871C34.3516 42.7356 33.0027 43.4787 32.5696 44.7587L32.5166 44.918L32.3515 44.9473C30.9529 45.1986 29.9282 45.4872 28.5639 45.9979L28.4043 46.0574L28.2787 45.9434C28.0252 45.7151 27.7238 45.5347 27.3839 45.4211L27.2362 45.377C25.8682 45.0107 24.4586 45.8315 24.0889 47.2103L24.0344 47.4646C23.8252 48.7369 24.5878 49.9813 25.8345 50.3491L26.0025 50.3986L26.0323 50.5721C26.274 51.9788 26.5416 53.0023 27.0273 54.3383L27.0874 54.505L26.9653 54.6331C26.6763 54.9367 26.4572 55.3167 26.3403 55.7526C25.9706 57.1316 26.7797 58.5463 28.1475 58.9125L28.3974 58.9668C29.6466 59.171 30.8728 58.4161 31.2588 57.1834L31.3114 57.017L31.4822 56.9881C32.9478 56.7367 33.9888 56.4512 35.3722 55.9339L35.5368 55.8723L35.6639 55.9936C35.963 56.2796 36.3363 56.4965 36.7645 56.6112L37.0211 56.6661C38.3042 56.8724 39.5641 56.0701 39.9107 54.7776C40.2723 53.4282 39.5034 52.046 38.1874 51.6448L38.0201 51.5931L37.9926 51.4191C37.7549 49.9364 37.4664 48.8856 36.9436 47.4764L36.8874 47.3246L36.9886 47.1978C37.1527 46.993 37.2886 46.7621 37.3867 46.5081L37.4715 46.247C37.8413 44.8681 37.0322 43.4534 35.6643 43.0871ZM35.7491 52.0076C35.5792 50.8137 35.3599 49.939 34.9434 48.8447L34.7593 48.3623L34.4538 48.7791C33.1157 50.602 32.3088 52.0022 31.3602 54.1657L31.1491 54.6469L31.6638 54.5595C32.6466 54.392 33.5099 54.1506 34.7782 53.6688L34.9152 53.617L34.9524 53.4741C34.9536 53.4693 34.9545 53.4647 34.9552 53.4608L34.9562 53.4556L34.9573 53.4513C35.0846 52.9772 35.3355 52.5707 35.6648 52.2539L35.7696 52.1521L35.7491 52.0076ZM29.4832 52.7922C30.3865 50.9302 31.1598 49.5786 32.3275 47.8421L32.7053 47.2791L32.0437 47.4042C31.0637 47.5883 30.2612 47.83 29.2408 48.2255L29.0987 48.2794L29.0654 48.429C29.0598 48.454 29.055 48.4806 29.0519 48.4966C29.0482 48.5156 29.0459 48.5275 29.0433 48.5369C28.9197 48.9975 28.6771 49.3938 28.3602 49.7075L28.2562 49.8106L28.2799 49.956C28.4488 51.008 28.6353 51.8188 28.9643 52.7635C29.2933 53.7082 29.1871 53.4034 29.1871 53.4034L29.4832 52.7922Z" fill="black"/>
</g>
<g clip-path="url(#clip3_3133_32150)">
<path fill-rule="evenodd" clip-rule="evenodd" d="M67.6643 11.0871C66.3516 10.7356 65.0027 11.4787 64.5696 12.7587L64.5166 12.918L64.3515 12.9473C62.9529 13.1986 61.9282 13.4872 60.5639 13.9979L60.4043 14.0574L60.2787 13.9434C60.0252 13.7151 59.7238 13.5347 59.3839 13.4211L59.2362 13.377C57.8682 13.0107 56.4586 13.8315 56.0889 15.2103L56.0344 15.4646C55.8252 16.7369 56.5878 17.9813 57.8345 18.3491L58.0025 18.3986L58.0323 18.5721C58.274 19.9788 58.5416 21.0023 59.0273 22.3383L59.0874 22.505L58.9653 22.6331C58.6763 22.9367 58.4572 23.3167 58.3403 23.7526C57.9706 25.1316 58.7797 26.5463 60.1475 26.9125L60.3974 26.9668C61.6466 27.171 62.8728 26.4161 63.2588 25.1834L63.3114 25.017L63.4822 24.9881C64.9478 24.7367 65.9888 24.4512 67.3722 23.9339L67.5368 23.8723L67.6639 23.9936C67.963 24.2796 68.3363 24.4965 68.7645 24.6112L69.0211 24.6661C70.3042 24.8724 71.5641 24.0701 71.9107 22.7776C72.2723 21.4282 71.5034 20.046 70.1874 19.6448L70.0201 19.5931L69.9926 19.4191C69.7549 17.9364 69.4664 16.8856 68.9436 15.4764L68.8874 15.3246L68.9886 15.1978C69.1527 14.993 69.2886 14.7621 69.3867 14.5081L69.4715 14.247C69.8413 12.8681 69.0322 11.4534 67.6643 11.0871ZM67.7491 20.0076C67.5792 18.8137 67.3599 17.939 66.9434 16.8447L66.7593 16.3623L66.4538 16.7791C65.1157 18.602 64.3088 20.0022 63.3602 22.1657L63.1491 22.6469L63.6638 22.5595C64.6466 22.392 65.5099 22.1506 66.7782 21.6688L66.9152 21.617L66.9524 21.4741C66.9536 21.4693 66.9545 21.4647 66.9552 21.4608L66.9562 21.4556L66.9573 21.4513C67.0846 20.9772 67.3355 20.5707 67.6648 20.2539L67.7696 20.1521L67.7491 20.0076ZM61.4832 20.7922C62.3865 18.9302 63.1598 17.5786 64.3275 15.8421L64.7053 15.2791L64.0437 15.4042C63.0637 15.5883 62.2612 15.83 61.2408 16.2255L61.0987 16.2794L61.0654 16.429C61.0598 16.454 61.055 16.4806 61.0519 16.4966C61.0482 16.5156 61.0459 16.5275 61.0433 16.5369C60.9197 16.9975 60.6771 17.3938 60.3602 17.7075L60.2562 17.8106L60.2799 17.956C60.4488 19.008 60.6353 19.8188 60.9643 20.7635C61.2933 21.7082 61.1871 21.4034 61.1871 21.4034L61.4832 20.7922Z" fill="black"/>
</g>
</g>
<defs>
<clipPath id="clip0_3133_32150">
<rect width="64" height="64" fill="white"/>
</clipPath>
<clipPath id="clip1_3133_32150">
<rect width="16" height="16" fill="white" transform="translate(-8 11)"/>
</clipPath>
<clipPath id="clip2_3133_32150">
<rect width="16" height="16" fill="white" transform="translate(24 43)"/>
</clipPath>
<clipPath id="clip3_3133_32150">
<rect width="16" height="16" fill="white" transform="translate(56 11)"/>
</clipPath>
</defs>
</svg>
