<svg width="64" height="64" viewBox="0 0 64 64" fill="none" xmlns="http://www.w3.org/2000/svg">
<g clip-path="url(#clip0_3133_32150)">
<path d="M-13.7101 13.5584C-14.5784 11.957 -13.3886 9.89619 -11.5676 9.84749C-8.82866 9.77425 -5.31853 9.5324 -2.72317 8.83697C-0.127814 8.14155 3.03297 6.59594 5.4416 5.28989C7.04298 4.42155 9.10381 5.61137 9.15251 7.43238C9.22575 10.1713 9.4676 13.6815 10.163 16.2768C10.8585 18.8722 12.4041 22.033 13.7101 24.4416C14.5784 26.043 13.3886 28.1038 11.5676 28.1525C8.82866 28.2258 5.31854 28.4676 2.72318 29.163C0.127817 29.8585 -3.03297 31.4041 -5.4416 32.7101C-7.04298 33.5784 -9.10381 32.3886 -9.15251 30.5676C-9.22575 27.8287 -9.4676 24.3185 -10.163 21.7232C-10.8585 19.1278 -12.4041 15.967 -13.7101 13.5584Z" fill="black"/>
<path d="M18.2899 45.5584C17.4216 43.957 18.6114 41.8962 20.4324 41.8475C23.1713 41.7743 26.6815 41.5324 29.2768 40.837C31.8722 40.1415 35.033 38.5959 37.4416 37.2899C39.043 36.4216 41.1038 37.6114 41.1525 39.4324C41.2258 42.1713 41.4676 45.6815 42.163 48.2768C42.8585 50.8722 44.4041 54.033 45.7101 56.4416C46.5784 58.043 45.3886 60.1038 43.5676 60.1525C40.8287 60.2258 37.3185 60.4676 34.7232 61.163C32.1278 61.8585 28.967 63.4041 26.5584 64.7101C24.957 65.5784 22.8962 64.3886 22.8475 62.5676C22.7743 59.8287 22.5324 56.3185 21.837 53.7232C21.1415 51.1278 19.5959 47.967 18.2899 45.5584Z" fill="black"/>
<path d="M18.2899 -18.4416C17.4216 -20.043 18.6114 -22.1038 20.4324 -22.1525C23.1713 -22.2257 26.6815 -22.4676 29.2768 -23.163C31.8722 -23.8585 35.033 -25.4041 37.4416 -26.7101C39.043 -27.5784 41.1038 -26.3886 41.1525 -24.5676C41.2258 -21.8287 41.4676 -18.3185 42.163 -15.7232C42.8585 -13.1278 44.4041 -9.96703 45.7101 -7.5584C46.5784 -5.95702 45.3886 -3.89619 43.5676 -3.84749C40.8287 -3.77425 37.3185 -3.5324 34.7232 -2.83697C32.1278 -2.14155 28.967 -0.595936 26.5584 0.710116C24.957 1.57845 22.8962 0.388631 22.8475 -1.43237C22.7743 -4.17134 22.5324 -7.68146 21.837 -10.2768C21.1415 -12.8722 19.5959 -16.033 18.2899 -18.4416Z" fill="black"/>
<path d="M50.2899 13.5584C49.4216 11.957 50.6114 9.89619 52.4324 9.84749C55.1713 9.77425 58.6815 9.5324 61.2768 8.83697C63.8722 8.14155 67.033 6.59594 69.4416 5.28989C71.043 4.42155 73.1038 5.61137 73.1525 7.43238C73.2258 10.1713 73.4676 13.6815 74.163 16.2768C74.8585 18.8722 76.4041 22.033 77.7101 24.4416C78.5784 26.043 77.3886 28.1038 75.5676 28.1525C72.8287 28.2258 69.3185 28.4676 66.7232 29.163C64.1278 29.8585 60.967 31.4041 58.5584 32.7101C56.957 33.5784 54.8962 32.3886 54.8475 30.5676C54.7743 27.8287 54.5324 24.3185 53.837 21.7232C53.1415 19.1278 51.5959 15.967 50.2899 13.5584Z" fill="black"/>
</g>
<defs>
<clipPath id="clip0_3133_32150">
<rect width="64" height="64"/>
</clipPath>
</defs>
</svg>
