<svg
    width="18"
    height="196"
    viewBox="0 0 18 196"
    fill="none"
    xmlns="http://www.w3.org/2000/svg"
>
    <path
        d="M0 98H2C2 131.877 18 156.084 18 196H16C16 156.084 0 131.877 0 98Z"
        fill="black"
    />
    <path
        d="M0 196V98C0 114.244 3.6788 128.265 7.50839 142.86C11.6654 158.704 16 175.224 16 196H0Z"
        fill="black"
    />
    <path d="M0 98H2C2 64.1235 18 39.916 18 0H16C16 39.916 0 64.1235 0 98Z" fill="black" />
    <path
        d="M0 0V98C0 81.756 3.6788 67.7352 7.50839 53.1397C11.6654 37.2965 16 20.7761 16 0H0Z"
        fill="black"
    />
</svg>