<svg
    width="18"
    height="196"
    viewBox="0 0 18 196"
    fill="none"
    xmlns="http://www.w3.org/2000/svg"
>
    <path d="M18 0H16C16 33.8765 0 58.084 0 98H2C2 58.084 18 33.8765 18 0Z" fill="black" />
    <path
        d="M18 98V0C18 16.244 14.3212 30.2648 10.4916 44.8603C6.33465 60.7035 2 77.2239 2 98H18Z"
        fill="black"
    />
    <path
        d="M18 196H16C16 162.123 0 137.916 0 98H2C2 137.916 18 162.123 18 196Z"
        fill="black"
    />
    <path
        d="M18 98V196C18 179.756 14.3212 165.735 10.4916 151.14C6.33465 135.296 2 118.776 2 98H18Z"
        fill="black"
    />
</svg>