<svg width="24" height="23" viewBox="0 0 24 23" fill="none" xmlns="http://www.w3.org/2000/svg">
<path fill-rule="evenodd" clip-rule="evenodd" d="M1.17347 15.8247C0.659842 14.5105 0.390484 13.4691 0.213203 12.3494C0.0749441 11.4759 -1.17181e-07 10.4694 0 9.53157C2.69863e-07 7.3717 0.297093 6.0184 1.00951 5.00086C2.51377 2.85236 5.56823 1.6119 8.99039 0.717635C10.7773 0.250701 12.1729 0.171957 13.6779 0.0918738C18.3329 -0.155814 19.1242 -0.145833 21.228 3.3711C21.5194 3.85829 22.2793 5.38408 22.7421 6.72431C23.3926 8.60818 23.8196 10.1234 23.9438 12.6279C24.1028 15.8335 24.1762 17.9564 20.4902 20.0851C18.7825 21.0713 16.9241 21.8672 15.0001 22.3648C13.5008 22.7525 11.6816 22.9996 10.1354 22.9996C5.12693 22.9996 4.04765 23.1788 1.17347 15.8247ZM4.20458 11.7604C4.26834 12.1632 4.36794 12.5938 4.49399 13.0414C4.57565 13.3314 4.95506 14.2453 5.2776 14.9622C5.43184 15.305 5.87963 15.2708 6.00198 14.9154C6.64297 13.0533 7.37386 11.2309 8.39217 9.53344C9.54217 7.61647 10.6154 6.40642 11.888 5.00086C12.1913 4.66591 11.919 4.1449 11.463 4.20928C10.9474 4.28207 10.4629 4.37185 10.0356 4.48236C9.01193 4.74708 7.7643 5.27095 6.58129 5.84189C6.58129 5.84189 5.02412 6.51931 4.49399 7.3829C3.97936 8.22123 4.04765 9.86208 4.04765 9.86208C4.06988 10.5479 4.11774 11.2117 4.20458 11.7604ZM19.1242 8.08494C19.4768 9.31964 19.6491 10.3511 19.7812 11.2899C19.8372 11.6883 19.8754 12.1436 19.9004 12.6221C19.9004 12.6221 20.0011 14.3665 19.5141 15.3073C19.0455 16.2125 17.643 17.1267 17.643 17.1267C16.3922 17.741 15.0463 18.3178 13.9549 18.6001C12.8749 18.8794 11.4294 19.0292 10.0411 19.1016C9.83903 19.1122 9.47149 19.0484 9.2942 18.8263C9.13016 18.6208 9.14585 18.2642 9.20261 18.0796C9.23251 17.9823 9.26304 17.8839 9.29419 17.7844C9.96684 15.6383 10.5669 13.7921 11.889 11.482C13.1994 9.19234 14.3764 7.7311 15.9658 6.09581C16.5805 5.46333 17.0443 5.21113 17.643 5.31576C18.3059 5.43159 18.8122 6.99287 19.1242 8.08494Z"/>
    <style>
        path { fill: #000; }
        @media (prefers-color-scheme: dark) {
            path { fill: #FFF; }
        }
    </style>
</svg>
