<svg width="16" height="16" viewBox="0 0 32 32" fill="none" xmlns="http://www.w3.org/2000/svg">
<g filter="url(#filter0_d_1729_8774)">
<path d="M0 14.5C0 6.49187 6.49187 0 14.5 0C22.5081 0 29 6.49187 29 14.5C29 22.5081 22.5081 29 14.5 29C6.49187 29 0 22.5081 0 14.5Z" fill="#8CFA4C"/>
<path d="M14.5 0.5C22.232 0.5 28.5 6.76801 28.5 14.5C28.5 22.232 22.232 28.5 14.5 28.5C6.76801 28.5 0.5 22.232 0.5 14.5C0.5 6.76801 6.76801 0.5 14.5 0.5Z" stroke="black"/>
</g>
<path fill-rule="evenodd" clip-rule="evenodd" d="M15.3229 5.30087C16.3957 4.6815 17.7675 5.04906 18.3869 6.12185C18.7568 6.76258 18.7747 7.50995 18.5005 8.13998C18.4234 8.31711 18.4285 8.52546 18.5427 8.68122C19.9144 10.5511 20.6426 11.7741 21.5617 13.9044C21.6388 14.0832 21.8178 14.1936 22.0113 14.2158C22.6928 14.2942 23.3298 14.6832 23.6991 15.3229C24.3185 16.3957 23.9509 17.7675 22.8782 18.3869C22.2371 18.757 21.4894 18.7747 20.8591 18.5001C20.6825 18.4232 20.4747 18.4279 20.319 18.5414C18.4444 19.9078 17.216 20.626 15.092 21.5605C14.9151 21.6384 14.8064 21.8164 14.7845 22.0085C14.7068 22.6911 14.3177 23.3293 13.6771 23.6991C12.6043 24.3185 11.2325 23.9509 10.6131 22.8782C10.2431 22.2373 10.2253 21.4898 10.4996 20.8597C10.5767 20.6827 10.5717 20.4746 10.4579 20.3188C9.09343 18.4507 8.38962 17.2183 7.44023 15.0894C7.36191 14.9138 7.18463 14.8063 6.99354 14.7847C6.31019 14.7076 5.67111 14.3183 5.30087 13.6771C4.6815 12.6043 5.04906 11.2325 6.12185 10.6131C6.76306 10.2429 7.51107 10.2253 8.1414 10.5001C8.31776 10.577 8.52517 10.5725 8.68085 10.4594C10.5577 9.0964 11.7889 8.38028 13.9094 7.43991C14.0856 7.36176 14.1937 7.18415 14.2154 6.99261C14.2928 6.3096 14.682 5.67094 15.3229 5.30087ZM9.24778 13.9606C9.18709 13.8197 9.20234 13.6593 9.26821 13.5208C9.38626 13.2726 9.45802 13.0043 9.47967 12.7303C9.49167 12.5784 9.55769 12.4328 9.67934 12.3411C11.19 11.2026 12.2366 10.5565 13.7687 9.86835C14.1433 9.7001 14.5281 10.0677 14.3915 10.455C13.4226 13.2007 12.9126 15.1229 12.3839 17.9513C12.3085 18.3546 11.7924 18.4803 11.5528 18.1472C10.5558 16.7612 9.98605 15.6741 9.24778 13.9606ZM19.7347 15.4732C19.7993 15.3382 19.816 15.1823 19.7597 15.0437C19.0193 13.2205 18.4151 12.1175 17.2988 10.6336C17.0821 10.3454 16.6364 10.4073 16.5023 10.742C15.3591 13.5937 14.8254 15.5736 14.359 18.7499C14.3064 19.1081 14.6629 19.3863 14.9951 19.2425C16.432 18.6208 17.5162 17.9854 19.3163 16.6588C19.4405 16.5673 19.5082 16.42 19.5206 16.2663C19.5428 15.9912 19.6154 15.722 19.7347 15.4732Z" fill="black"/>
<defs>
<filter id="filter0_d_1729_8774" x="0" y="0" width="31" height="31" filterUnits="userSpaceOnUse" color-interpolation-filters="sRGB">
<feFlood flood-opacity="0" result="BackgroundImageFix"/>
<feColorMatrix in="SourceAlpha" type="matrix" values="0 0 0 0 0 0 0 0 0 0 0 0 0 0 0 0 0 0 127 0" result="hardAlpha"/>
<feOffset dx="2" dy="2"/>
<feComposite in2="hardAlpha" operator="out"/>
<feColorMatrix type="matrix" values="0 0 0 0 0 0 0 0 0 0 0 0 0 0 0 0 0 0 1 0"/>
<feBlend mode="normal" in2="BackgroundImageFix" result="effect1_dropShadow_1729_8774"/>
<feBlend mode="normal" in="SourceGraphic" in2="effect1_dropShadow_1729_8774" result="shape"/>
</filter>
</defs>
</svg>
