<svg width="268" height="64" viewBox="0 0 268 64" fill="none" xmlns="http://www.w3.org/2000/svg">
<path d="M251.833 42C251.833 37.5817 255.415 34 259.833 34C264.251 34 267.833 37.5817 267.833 42C267.833 46.4183 264.251 50 259.833 50C255.415 50 251.833 46.4183 251.833 42Z" fill="white"/>
<path fill-rule="evenodd" clip-rule="evenodd" d="M236.693 12.8291C239.011 12.8291 240.918 13.2401 242.415 14.0615C243.96 14.8346 245.167 15.8972 246.036 17.25C246.905 18.6029 247.509 20.1493 247.847 21.8887C248.185 23.6282 248.354 25.4407 248.354 27.3252V47.3594C248.353 48.4638 247.458 49.3594 246.354 49.3594H237.245C236.141 49.3594 235.245 48.4638 235.245 47.3594V29.5723C235.245 27.9294 235.027 26.866 234.593 26.3828C234.207 25.8997 233.531 25.6583 232.565 25.6582C231.938 25.6582 231.261 25.7789 230.537 26.0205C229.861 26.2138 229.113 26.552 228.292 27.0352C228.112 27.1366 227.927 27.2448 227.739 27.3594C227.171 27.7056 226.843 28.3336 226.843 28.999V47.3594C226.843 48.4638 225.947 49.3594 224.843 49.3594H215.734C214.63 49.3594 213.735 48.4638 213.734 47.3594V41.5C213.734 41.1224 213.158 41.0055 212.988 41.3428C212.865 41.5895 212.735 41.834 212.601 42.0752C211.007 44.8775 208.762 47.1003 205.865 48.7432C203.017 50.3377 199.708 51.1347 195.942 51.1348C192.176 51.1347 188.868 50.3376 186.02 48.7432C183.171 47.1004 180.926 44.8775 179.284 42.0752C179.061 41.6766 178.373 41.8286 178.372 42.2852V43.7783C178.372 47.9818 177.648 51.5815 176.199 54.5771C174.751 57.6213 172.578 59.9416 169.681 61.5361C166.832 63.1789 163.283 64 159.034 64C157.199 64 155.243 63.7097 153.167 63.1299C151.139 62.55 149.232 61.5843 147.445 60.2314C145.659 58.8785 144.235 57.0419 143.173 54.7227C142.81 53.9154 143.155 52.966 143.951 52.5801L150.098 49.6025C150.988 49.1713 152.048 49.4654 152.673 50.2324C153.465 51.2051 154.233 51.9291 154.978 52.4033C156.088 53.0798 157.513 53.418 159.251 53.418C160.941 53.418 162.366 52.8623 163.524 51.751C164.683 50.6396 165.263 49.0206 165.263 46.8945V46.0068C165.263 45.679 164.887 45.486 164.61 45.6621C162.534 47.0151 160.071 47.6924 157.223 47.6924C154.133 47.6923 151.357 46.943 148.895 45.4453C146.48 43.9474 144.548 41.8935 143.1 39.2842C141.699 36.6267 141 33.6308 141 30.2969C141 29.6363 141.08 28.7384 141.171 27.923C141.205 27.6249 140.756 27.5037 140.641 27.7805L126.401 61.9004C126.091 62.645 125.362 63.1297 124.556 63.1299H115.782C114.354 63.1299 113.386 61.6769 113.937 60.3594L118.918 48.4414C119.021 48.1939 119.021 47.9152 118.917 47.668L105.836 16.6201C105.281 15.3019 106.249 13.8438 107.68 13.8438H116.448C117.253 13.8439 117.979 14.326 118.291 15.0674L125.062 31.1504C125.26 31.6213 125.928 31.6219 126.125 31.1504L132.834 15.0732C133.145 14.3287 133.873 13.8439 134.68 13.8438H143.455C144.883 13.8438 145.851 15.2968 145.301 16.6143L144.514 18.5C144.451 18.6507 144.696 18.7879 144.798 18.6603C145.914 17.2606 147.232 16.0899 148.749 15.1484C151.163 13.6022 153.916 12.8291 157.006 12.8291C159.806 12.8291 162.269 13.5782 164.394 15.0762C164.508 15.1543 164.622 15.234 164.733 15.3154C165.072 15.5618 165.569 15.329 165.569 14.9102C165.57 14.3213 166.047 13.844 166.636 13.8438H176.568C177.564 13.8438 178.372 14.6515 178.372 15.6475V22.5088C178.372 22.9646 179.059 23.1186 179.284 22.7227C180.926 19.8719 183.171 17.6482 186.02 16.0537C188.868 14.4109 192.176 13.5899 195.942 13.5898C199.708 13.5899 203.017 14.4109 205.865 16.0537C208.762 17.6483 211.007 19.8719 212.601 22.7227C212.771 23.0224 212.933 23.3266 213.085 23.6357C213.232 23.9342 213.734 23.8327 213.734 23.5V15.8438C213.734 14.7392 214.63 13.8438 215.734 13.8438H225.177C226.091 13.8438 226.833 14.5853 226.833 15.5C226.833 15.664 227.013 15.7647 227.154 15.6816C228.206 15.0636 229.31 14.524 230.465 14.0615C232.444 13.2401 234.521 12.8291 236.693 12.8291ZM191.814 27.2529C192.925 26.1416 194.301 25.586 195.942 25.5859C197.584 25.5859 198.961 26.1416 200.071 27.2529C201.182 28.3159 201.736 29.7417 201.736 31.5293C201.736 33.3169 201.182 34.7667 200.071 35.8779C198.961 36.9893 197.584 37.5449 195.942 37.5449C194.301 37.5449 192.925 36.9891 191.814 35.8779C190.752 34.7667 190.221 33.317 190.221 31.5293C190.221 29.7415 190.752 28.316 191.814 27.2529ZM155.992 26.0928C157.103 24.9332 158.479 24.3535 160.12 24.3535C161.713 24.3535 163.065 24.9332 164.176 26.0928C165.335 27.2041 165.914 28.6057 165.914 30.2969C165.914 31.8914 165.335 33.2681 164.176 34.4277C163.065 35.5391 161.714 36.0947 160.12 36.0947C158.478 36.0947 157.103 35.5391 155.992 34.4277C154.882 33.2681 154.326 31.8914 154.326 30.2969C154.326 28.6057 154.882 27.2041 155.992 26.0928Z" fill="white"/>
<path d="M102.109 0C103.214 8.24354e-05 104.109 0.895481 104.109 2V36.4287C104.109 36.6445 104.284 36.8203 104.5 36.8203H105.368C106.473 36.8203 107.368 37.7157 107.368 38.8203V47.8115C107.368 48.8199 106.614 49.6473 105.605 49.6484H105.558C104.737 49.6967 104.061 49.7217 103.53 49.7217C101.358 49.7217 99.3053 49.3346 97.374 48.5615C95.4909 47.7401 93.9454 46.4114 92.7383 44.5752C91.6371 42.8304 91.0587 40.4744 91.0039 37.5078L91 2C91 0.895431 91.8954 0 93 0H102.109Z" fill="white"/>
<path fill-rule="evenodd" clip-rule="evenodd" d="M18.252 0C21.8731 5.60893e-05 25.1564 0.700373 28.1016 2.10156C31.0952 3.45453 33.461 5.4845 35.1992 8.19043C37.5051 11.6206 38.2134 16.0239 37.8135 20.1611C37.7839 20.4671 37.7485 20.7717 37.707 21.0742C37.6751 21.3071 38.0543 21.4441 38.1807 21.2461C39.748 18.778 41.9281 16.7244 44.4854 15.293C47.3341 13.6501 50.642 12.8291 54.4082 12.8291C58.1744 12.8291 61.4823 13.6501 64.3311 15.293C67.2281 16.8875 69.473 19.1111 71.0664 21.9619C71.4565 22.6481 71.7992 23.3593 72.0938 24.0947C72.1994 24.3573 72.6504 24.2832 72.6504 24V2C72.6504 0.895542 73.546 0.000181375 74.6504 0H83.7598C84.8643 0 85.7598 0.895431 85.7598 2V36.4307C85.7598 36.6457 85.9344 36.8203 86.1494 36.8203H87.0195C88.1239 36.8205 89.0195 37.7159 89.0195 38.8203V47.8115C89.0193 48.8199 88.2643 49.6473 87.2559 49.6484H87.208C86.3874 49.6967 85.7117 49.7217 85.1807 49.7217C83.0079 49.7217 80.9558 49.3346 79.0244 48.5615C77.1413 47.7401 75.5958 46.4114 74.3887 44.5752C73.4584 43.1011 72.9012 41.1909 72.7178 38.8447C72.6996 38.6128 72.3173 38.5603 72.2363 38.7783C71.9114 39.6549 71.5211 40.4999 71.0664 41.3135C69.4731 44.1159 67.2279 46.3386 64.3311 47.9814C61.4823 49.576 58.1744 50.374 54.4082 50.374C50.642 50.374 47.3341 49.576 44.4854 47.9814C41.6368 46.3386 39.3916 44.1159 37.75 41.3135C36.1567 38.4627 35.3604 35.2254 35.3604 31.6016C35.3604 30.4512 35.44 29.342 35.6006 28.2744C35.6306 28.0751 35.3103 27.954 35.1992 28.1221C34.0783 29.8359 32.6967 31.2789 31.0537 32.4502C30.638 32.7465 30.4798 33.2978 30.7051 33.7559L36.9668 46.4756C37.6211 47.8046 36.6532 49.3594 35.1719 49.3594H25.29C24.5281 49.3593 23.8326 48.9258 23.4961 48.2422L17.8262 36.7256C17.6578 36.3841 17.3104 36.1681 16.9297 36.168H14.1094C13.5571 36.168 13.1094 36.6157 13.1094 37.168V47.3594C13.1092 48.4637 12.2138 49.3593 11.1094 49.3594H2C0.895554 49.3594 0.000199902 48.4638 0 47.3594V2C5.48184e-07 0.895431 0.895431 0 2 0H18.252ZM50.2803 27.2529C51.3908 26.1416 52.7666 25.586 54.4082 25.5859C56.0499 25.5859 57.4256 26.1416 58.5361 27.2529C59.6467 28.316 60.2021 29.7415 60.2021 31.5293C60.2021 33.317 59.6466 34.7667 58.5361 35.8779C57.4257 36.9891 56.0497 37.5449 54.4082 37.5449C52.7667 37.5449 51.3908 36.9891 50.2803 35.8779C49.2181 34.7667 48.6866 33.317 48.6865 31.5293C48.6865 29.7415 49.218 28.316 50.2803 27.2529ZM13.1094 13.7539C13.1094 13.2016 13.5571 12.7568 14.1094 12.7568H17.8174C20.0383 12.7569 21.704 13.2158 22.8145 14.1338C23.9732 15.0519 24.5527 16.3806 24.5527 18.1201C24.5527 19.9079 23.9732 21.2367 22.8145 22.1064C21.704 22.9762 20.0383 23.4111 17.8174 23.4111H14.1094C13.5571 23.4111 13.1094 22.9644 13.1094 22.4121V13.7539Z" fill="white"/>
</svg>
