<svg width="136" height="121" viewBox="0 0 136 121" fill="none" xmlns="http://www.w3.org/2000/svg">
<path d="M68.2863 75.7623C93.0522 75.7635 113.199 91.9163 122.703 115.398L108.909 121C101.237 102.045 85.8871 90.6734 68.2863 90.6724C50.6854 90.6734 35.3354 102.045 27.6636 121L13.8693 115.398C23.3733 91.9163 43.5204 75.7635 68.2863 75.7623Z" fill="currentColor"/>
<path d="M43.823 10.4523L32.3478 22.1434L43.823 33.8344L33.2066 44.2867L21.9115 32.7771L10.6164 44.2867L0 33.8344L11.474 22.1434L0 10.4523L10.6164 0L21.9115 11.5085L33.2066 0L43.823 10.4523Z" fill="currentColor"/>
<path d="M136 10.4523L124.525 22.1434L136 33.8344L125.384 44.2867L114.089 32.7771L102.793 44.2867L92.177 33.8344L103.651 22.1434L92.177 10.4523L102.793 0L114.089 11.5085L125.384 0L136 10.4523Z" fill="currentColor"/>
</svg>
